<svg xmlns="http://www.w3.org/2000/svg" width="512" height="512" viewBox="0 0 512 512" version="1.1"><path d="M 107.346 45.750 C 110.800 51.663, 145.489 111.287, 184.434 178.250 C 223.379 245.212, 255.578 300, 255.988 300 C 256.677 300, 409 36.727, 409 35.535 C 409 35.241, 387.706 35, 361.681 35 L 314.361 35 285.431 85.467 C 269.519 113.224, 256.275 135.933, 256 135.930 C 255.725 135.927, 252.313 130.429, 248.417 123.713 C 244.522 116.996, 231.247 94.294, 218.917 73.264 L 196.500 35.029 148.784 35.014 L 101.067 35 107.346 45.750" stroke="none" fill="#344c5c" fill-rule="evenodd"/><path d="M 0.164 35.922 C 0.909 38.007, 255.536 476.939, 256 476.939 C 256.275 476.940, 311.400 382.161, 378.500 266.320 C 445.600 150.480, 503.313 50.956, 506.750 45.156 C 510.187 39.357, 513 34.586, 513 34.556 C 513 34.525, 489.713 34.627, 461.250 34.783 L 409.500 35.066 333.099 167.566 C 291.078 240.441, 256.303 299.934, 255.821 299.774 C 255.338 299.613, 220.395 240.085, 178.169 167.491 L 101.394 35.500 50.610 35.241 C 19.202 35.080, -0.044 35.340, 0.164 35.922" stroke="none" fill="#43bb83" fill-rule="evenodd"/></svg>